<mxfile host="app.diagrams.net" agent="Mozilla/5.0 (Windows NT 10.0; Win64; x64) AppleWebKit/537.36 (KHTML, like Gecko) Chrome/127.0.0.0 Safari/537.36" version="24.7.6">
  <diagram name="PÃ¡gina-1" id="ue8fLCWp2CEZWabeXcxj">
    <mxGraphModel dx="1877" dy="565" grid="1" gridSize="10" guides="1" tooltips="1" connect="1" arrows="1" fold="1" page="1" pageScale="1" pageWidth="827" pageHeight="1169" math="0" shadow="0">
      <root>
        <mxCell id="0" />
        <mxCell id="1" parent="0" />
        <mxCell id="5ArFgoNVE3qvAwgU8BPl-4" value="" style="edgeStyle=orthogonalEdgeStyle;rounded=0;orthogonalLoop=1;jettySize=auto;html=1;" edge="1" parent="1" source="5ArFgoNVE3qvAwgU8BPl-1" target="5ArFgoNVE3qvAwgU8BPl-3">
          <mxGeometry relative="1" as="geometry" />
        </mxCell>
        <mxCell id="5ArFgoNVE3qvAwgU8BPl-1" value="" style="ellipse;whiteSpace=wrap;html=1;" vertex="1" parent="1">
          <mxGeometry x="70" y="40" width="120" height="80" as="geometry" />
        </mxCell>
        <mxCell id="5ArFgoNVE3qvAwgU8BPl-2" value="&lt;font style=&quot;font-size: 17px;&quot;&gt;Start&lt;/font&gt;" style="text;html=1;align=center;verticalAlign=middle;whiteSpace=wrap;rounded=0;" vertex="1" parent="1">
          <mxGeometry x="100" y="65" width="60" height="30" as="geometry" />
        </mxCell>
        <mxCell id="5ArFgoNVE3qvAwgU8BPl-16" value="" style="edgeStyle=orthogonalEdgeStyle;rounded=0;orthogonalLoop=1;jettySize=auto;html=1;" edge="1" parent="1" source="5ArFgoNVE3qvAwgU8BPl-3" target="5ArFgoNVE3qvAwgU8BPl-15">
          <mxGeometry relative="1" as="geometry" />
        </mxCell>
        <mxCell id="5ArFgoNVE3qvAwgU8BPl-3" value="" style="rounded=0;whiteSpace=wrap;html=1;" vertex="1" parent="1">
          <mxGeometry x="70" y="180" width="120" height="60" as="geometry" />
        </mxCell>
        <mxCell id="5ArFgoNVE3qvAwgU8BPl-5" value="&lt;font style=&quot;font-size: 15px;&quot;&gt;Access to&amp;nbsp;&lt;/font&gt;&lt;div style=&quot;font-size: 15px;&quot;&gt;&lt;font style=&quot;font-size: 15px;&quot;&gt;voting page&lt;/font&gt;&lt;/div&gt;" style="text;html=1;align=center;verticalAlign=middle;whiteSpace=wrap;rounded=0;" vertex="1" parent="1">
          <mxGeometry x="70" y="195" width="120" height="30" as="geometry" />
        </mxCell>
        <mxCell id="5ArFgoNVE3qvAwgU8BPl-31" style="edgeStyle=orthogonalEdgeStyle;rounded=0;orthogonalLoop=1;jettySize=auto;html=1;exitX=0.5;exitY=1;exitDx=0;exitDy=0;exitPerimeter=0;entryX=0.5;entryY=0;entryDx=0;entryDy=0;" edge="1" parent="1" source="5ArFgoNVE3qvAwgU8BPl-6" target="5ArFgoNVE3qvAwgU8BPl-24">
          <mxGeometry relative="1" as="geometry" />
        </mxCell>
        <mxCell id="5ArFgoNVE3qvAwgU8BPl-6" value="" style="shape=cylinder3;whiteSpace=wrap;html=1;boundedLbl=1;backgroundOutline=1;size=15;" vertex="1" parent="1">
          <mxGeometry x="360" y="170" width="60" height="80" as="geometry" />
        </mxCell>
        <mxCell id="5ArFgoNVE3qvAwgU8BPl-13" style="edgeStyle=orthogonalEdgeStyle;rounded=0;orthogonalLoop=1;jettySize=auto;html=1;exitX=0;exitY=0.5;exitDx=0;exitDy=0;entryX=1;entryY=0.75;entryDx=0;entryDy=0;" edge="1" parent="1" source="5ArFgoNVE3qvAwgU8BPl-9" target="5ArFgoNVE3qvAwgU8BPl-5">
          <mxGeometry relative="1" as="geometry" />
        </mxCell>
        <mxCell id="5ArFgoNVE3qvAwgU8BPl-9" value="Data&lt;div&gt;Users&lt;/div&gt;" style="text;html=1;align=center;verticalAlign=middle;whiteSpace=wrap;rounded=0;" vertex="1" parent="1">
          <mxGeometry x="360" y="200" width="60" height="30" as="geometry" />
        </mxCell>
        <mxCell id="5ArFgoNVE3qvAwgU8BPl-14" value="Select" style="text;html=1;align=center;verticalAlign=middle;whiteSpace=wrap;rounded=0;" vertex="1" parent="1">
          <mxGeometry x="210" y="190" width="60" height="30" as="geometry" />
        </mxCell>
        <mxCell id="5ArFgoNVE3qvAwgU8BPl-15" value="" style="rounded=0;whiteSpace=wrap;html=1;" vertex="1" parent="1">
          <mxGeometry x="70" y="320" width="120" height="60" as="geometry" />
        </mxCell>
        <mxCell id="5ArFgoNVE3qvAwgU8BPl-21" value="" style="edgeStyle=orthogonalEdgeStyle;rounded=0;orthogonalLoop=1;jettySize=auto;html=1;" edge="1" parent="1" source="5ArFgoNVE3qvAwgU8BPl-17" target="5ArFgoNVE3qvAwgU8BPl-20">
          <mxGeometry relative="1" as="geometry" />
        </mxCell>
        <mxCell id="5ArFgoNVE3qvAwgU8BPl-17" value="&lt;font style=&quot;font-size: 15px;&quot;&gt;Voting process&lt;/font&gt;&lt;div&gt;&lt;font style=&quot;font-size: 15px;&quot;&gt;(Front-end)&lt;/font&gt;&lt;/div&gt;" style="text;html=1;align=center;verticalAlign=middle;whiteSpace=wrap;rounded=0;" vertex="1" parent="1">
          <mxGeometry x="70" y="320" width="120" height="60" as="geometry" />
        </mxCell>
        <mxCell id="5ArFgoNVE3qvAwgU8BPl-18" value="" style="strokeWidth=2;html=1;shape=mxgraph.flowchart.annotation_1;align=left;pointerEvents=1;" vertex="1" parent="1">
          <mxGeometry x="30" y="300" width="50" height="100" as="geometry" />
        </mxCell>
        <mxCell id="5ArFgoNVE3qvAwgU8BPl-19" value="&lt;h1 style=&quot;text-align: center; margin-top: 0px;&quot;&gt;Explication&lt;/h1&gt;&lt;p style=&quot;font-size: 14px;&quot;&gt;&lt;font style=&quot;font-size: 14px;&quot;&gt;- The user will choose one of the electors (clicking the button).&lt;/font&gt;&lt;/p&gt;&lt;p style=&quot;font-size: 14px;&quot;&gt;&lt;font style=&quot;font-size: 14px;&quot;&gt;- Inmediatly the user will confirm his final election.&lt;/font&gt;&lt;/p&gt;&lt;p style=&quot;font-size: 14px;&quot;&gt;&lt;font style=&quot;font-size: 14px;&quot;&gt;- Once the user choosed the elector he wants, he couldnt restract or modify the vote.&lt;/font&gt;&lt;/p&gt;" style="text;html=1;whiteSpace=wrap;overflow=hidden;rounded=0;" vertex="1" parent="1">
          <mxGeometry x="-220" y="240" width="240" height="210" as="geometry" />
        </mxCell>
        <mxCell id="5ArFgoNVE3qvAwgU8BPl-20" value="" style="rounded=0;whiteSpace=wrap;html=1;" vertex="1" parent="1">
          <mxGeometry x="290" y="320" width="120" height="60" as="geometry" />
        </mxCell>
        <mxCell id="5ArFgoNVE3qvAwgU8BPl-22" value="" style="strokeWidth=2;html=1;shape=mxgraph.flowchart.annotation_1;align=left;pointerEvents=1;rotation=-180;" vertex="1" parent="1">
          <mxGeometry x="400" y="300" width="50" height="100" as="geometry" />
        </mxCell>
        <mxCell id="5ArFgoNVE3qvAwgU8BPl-23" value="&lt;h1 style=&quot;text-align: center; margin-top: 0px;&quot;&gt;Explication&lt;/h1&gt;&lt;p style=&quot;font-size: 14px;&quot;&gt;&lt;font style=&quot;font-size: 14px;&quot;&gt;- The vote will send in the back, with the users data.&lt;/font&gt;&lt;/p&gt;&lt;p style=&quot;font-size: 14px;&quot;&gt;&lt;font style=&quot;font-size: 14px;&quot;&gt;- Before the vote was saved, the pair key (public and private) will signed the vote.&lt;/font&gt;&lt;/p&gt;&lt;p style=&quot;font-size: 14px;&quot;&gt;&lt;font style=&quot;font-size: 14px;&quot;&gt;- The system encrypt the vote with the public key, inmediatly will send to a topic on kafka.&lt;/font&gt;&lt;/p&gt;&lt;p&gt;&lt;/p&gt;&lt;div style=&quot;text-align: center;&quot;&gt;&lt;b style=&quot;background-color: initial;&quot;&gt;&lt;u&gt;&lt;font style=&quot;font-size: 15px;&quot;&gt;asimetric encrypt&lt;/font&gt;&lt;/u&gt;&lt;/b&gt;&lt;/div&gt;&lt;font style=&quot;font-size: 14px;&quot;&gt;-&amp;nbsp;&lt;span style=&quot;font-family: inherit; background-color: rgb(255, 255, 255);&quot;&gt;The user&#39;s vote is digitally signed with their private key before being sent. This ensures that the vote comes from the legitimate user and cannot be altered without detection.&lt;/span&gt;&lt;/font&gt;&lt;p style=&quot;font-size: 14px;&quot;&gt;&lt;/p&gt;&lt;p style=&quot;font-size: 14px;&quot;&gt;&lt;font style=&quot;font-size: 14px;&quot;&gt;-&amp;nbsp;&lt;span style=&quot;font-family: inherit; background-color: rgb(255, 255, 255);&quot;&gt;After the vote is signed, the system encrypts it using your public key. This guarantees that only the system, with its private key, can decrypt and process the vote, ensuring its confidentiality.&lt;/span&gt;&lt;/font&gt;&lt;/p&gt;" style="text;html=1;whiteSpace=wrap;overflow=hidden;rounded=0;" vertex="1" parent="1">
          <mxGeometry x="470" y="240" width="350" height="350" as="geometry" />
        </mxCell>
        <mxCell id="5ArFgoNVE3qvAwgU8BPl-26" value="" style="edgeStyle=orthogonalEdgeStyle;rounded=0;orthogonalLoop=1;jettySize=auto;html=1;" edge="1" parent="1" source="5ArFgoNVE3qvAwgU8BPl-24" target="5ArFgoNVE3qvAwgU8BPl-25">
          <mxGeometry relative="1" as="geometry" />
        </mxCell>
        <mxCell id="5ArFgoNVE3qvAwgU8BPl-24" value="&lt;font style=&quot;font-size: 15px;&quot;&gt;Voting process&lt;/font&gt;&lt;div style=&quot;font-size: 15px;&quot;&gt;&lt;font style=&quot;font-size: 15px;&quot;&gt;(Back-end)&lt;/font&gt;&lt;/div&gt;" style="text;html=1;align=center;verticalAlign=middle;whiteSpace=wrap;rounded=0;" vertex="1" parent="1">
          <mxGeometry x="290" y="320" width="120" height="60" as="geometry" />
        </mxCell>
        <mxCell id="5ArFgoNVE3qvAwgU8BPl-25" value="" style="rounded=0;whiteSpace=wrap;html=1;" vertex="1" parent="1">
          <mxGeometry x="290" y="470" width="120" height="60" as="geometry" />
        </mxCell>
        <mxCell id="5ArFgoNVE3qvAwgU8BPl-29" value="" style="edgeStyle=orthogonalEdgeStyle;rounded=0;orthogonalLoop=1;jettySize=auto;html=1;" edge="1" parent="1" source="5ArFgoNVE3qvAwgU8BPl-27" target="5ArFgoNVE3qvAwgU8BPl-28">
          <mxGeometry relative="1" as="geometry" />
        </mxCell>
        <mxCell id="5ArFgoNVE3qvAwgU8BPl-27" value="&lt;font style=&quot;font-size: 15px;&quot;&gt;Kafka will manage the vote&lt;/font&gt;" style="text;html=1;align=center;verticalAlign=middle;whiteSpace=wrap;rounded=0;" vertex="1" parent="1">
          <mxGeometry x="290" y="470" width="120" height="60" as="geometry" />
        </mxCell>
        <mxCell id="5ArFgoNVE3qvAwgU8BPl-28" value="" style="ellipse;whiteSpace=wrap;html=1;" vertex="1" parent="1">
          <mxGeometry x="290" y="590" width="120" height="80" as="geometry" />
        </mxCell>
        <mxCell id="5ArFgoNVE3qvAwgU8BPl-30" value="&lt;font style=&quot;font-size: 15px;&quot;&gt;End&lt;/font&gt;" style="text;html=1;align=center;verticalAlign=middle;whiteSpace=wrap;rounded=0;" vertex="1" parent="1">
          <mxGeometry x="320" y="615" width="60" height="30" as="geometry" />
        </mxCell>
        <mxCell id="5ArFgoNVE3qvAwgU8BPl-32" value="Select" style="text;html=1;align=center;verticalAlign=middle;whiteSpace=wrap;rounded=0;" vertex="1" parent="1">
          <mxGeometry x="290" y="280" width="60" height="30" as="geometry" />
        </mxCell>
      </root>
    </mxGraphModel>
  </diagram>
</mxfile>
